<svg width="153" height="153" viewBox="0 0 153 153" fill="none" xmlns="http://www.w3.org/2000/svg">
<path d="M4.27711 4.27711C7.01657 1.53848 10.7316 0 14.6052 0C18.4788 0 22.1938 1.53848 24.9333 4.27711L76.5882 55.9321L128.243 4.27711C130.998 1.61609 134.688 0.143657 138.519 0.176941C142.349 0.210225 146.013 1.74656 148.721 4.45506C151.43 7.16356 152.966 10.8275 152.999 14.6578C153.033 18.488 151.56 22.1781 148.899 24.9333L97.2443 76.5882L148.899 128.243C151.56 130.998 153.033 134.688 152.999 138.519C152.966 142.349 151.43 146.013 148.721 148.721C146.013 151.43 142.349 152.966 138.519 152.999C134.688 153.033 130.998 151.56 128.243 148.899L76.5882 97.2443L24.9333 148.899C22.1781 151.56 18.488 153.033 14.6578 152.999C10.8275 152.966 7.16356 151.43 4.45506 148.721C1.74656 146.013 0.210225 142.349 0.176941 138.519C0.143657 134.688 1.61609 130.998 4.27711 128.243L55.9321 76.5882L4.27711 24.9333C1.53848 22.1938 0 18.4788 0 14.6052C0 10.7316 1.53848 7.01657 4.27711 4.27711Z" fill="white"/>
</svg>
