<svg width="28" height="28" viewBox="0 0 28 28" fill="none" xmlns="http://www.w3.org/2000/svg">
<path d="M7.86968 4.375C7.34503 4.375 6.99527 4.9 6.99527 5.25V9.625H5.24645V5.25C5.24645 4.725 4.89669 4.375 4.37204 4.375C3.8474 4.375 3.49763 4.9 3.49763 5.25V9.625H1.74882V5.25C1.74882 4.725 1.39905 4.375 0.874408 4.375C0.349763 4.375 0 4.9 0 5.25V11.025C0 12.6 1.22417 13.825 2.62323 14V26.25C2.62323 27.3 3.32275 28 4.37204 28C5.42133 28 6.12086 27.3 6.12086 26.25V14C7.51991 13.825 8.74408 12.6 8.74408 11.025V5.25C8.74408 4.9 8.39432 4.375 7.86968 4.375ZM11.3673 5.25V15.75H13.1161V26.25C13.1161 27.3 13.8157 28 14.8649 28C15.9142 28 16.6138 27.3 16.6138 26.25V0C13.6408 0 11.3673 2.275 11.3673 5.25ZM23.609 3.5C21.1607 3.5 19.237 6.125 19.237 9.275C19.0621 11.375 20.1114 13.3 21.8602 14.525V26.25C21.8602 27.3 22.5597 28 23.609 28C24.6583 28 25.3578 27.3 25.3578 26.25V14.525C27.1067 13.3 28.1559 11.375 27.9811 9.275C27.9811 6.125 26.0574 3.5 23.609 3.5Z" fill="white"/>
</svg>
