<svg width="38" height="38" viewBox="0 0 38 38" fill="none" xmlns="http://www.w3.org/2000/svg">
<path d="M33.25 22.1667V30.0833C33.25 30.9232 32.9164 31.7286 32.3225 32.3225C31.7286 32.9164 30.9232 33.25 30.0833 33.25H7.91667C7.07681 33.25 6.27136 32.9164 5.6775 32.3225C5.08363 31.7286 4.75 30.9232 4.75 30.0833V7.91667C4.75 7.07681 5.08363 6.27136 5.6775 5.6775C6.27136 5.08363 7.07681 4.75 7.91667 4.75H15.8333V7.91667H7.91667V30.0833H30.0833V22.1667H33.25Z" fill="white"/>
<path d="M33.25 11.0833H26.9167V4.75H23.75V11.0833H17.4167V14.25H23.75V20.5833H26.9167V14.25H33.25V11.0833Z" fill="white"/>
</svg>
