<svg width="25" height="25" viewBox="0 0 25 25" fill="none" xmlns="http://www.w3.org/2000/svg">
<path d="M24.1896 1.73385C25.2701 2.81279 25.2701 4.5622 24.1896 5.64114L22.7096 7.12611L17.8746 2.29232L19.3596 0.80932C20.4401 -0.269773 22.1866 -0.269773 23.2671 0.80932L24.1896 1.73385V1.73385ZM8.5056 11.6649L16.7596 3.40826L21.5946 8.24107L13.3356 16.4947C13.0347 16.8006 12.6647 17.0275 12.2552 17.1657L7.87409 18.626C7.4054 18.7641 6.9811 18.6556 6.66042 18.2954C6.34466 18.0192 6.23612 17.5505 6.37427 17.1262L7.83462 12.7453C7.97277 12.3358 8.19971 11.9658 8.5056 11.6649V11.6649ZM9.47259 2.85374C10.3458 2.85374 11.0514 3.60511 11.0514 4.43245C11.0514 5.35007 10.3458 6.01115 9.47259 6.01115H4.7363C3.86452 6.01115 3.15753 6.76104 3.15753 7.58985V20.2639C3.15753 21.1371 3.86452 21.8426 4.7363 21.8426H17.3664C18.2397 21.8426 18.9452 21.1371 18.9452 20.2639V15.4834C18.9452 14.6546 19.6507 13.9047 20.524 13.9047C21.3972 13.9047 22.1027 14.6546 22.1027 15.4834V20.2639C22.1027 22.8786 19.9813 25 17.3664 25H4.7363C2.12048 25 0 22.8786 0 20.2639V7.58985C0 4.97513 2.12048 2.85374 4.7363 2.85374H9.47259V2.85374Z" fill="white"/>
</svg>
